<svg
    id="visual"
    viewBox="0 0 900 70"
    width="900"
    height="70"
    xmlns="http://www.w3.org/2000/svg"
    xmlns:xlink="http://www.w3.org/1999/xlink"
    version="1.1">
    <rect x="0" y="0" width="900" height="70" fill="#001220" fill-opacity="0"></rect>
    <path
        d="M0 57L21.5 56C43 55 86 53 128.8 48C171.7 43 214.3 35 257.2 31.3C300 27.7 343 28.3 385.8 29.2C428.7 30 471.3 31 514.2 35.5C557 40 600 48 642.8 48.2C685.7 48.3 728.3 40.7 771.2 37.8C814 35 857 37 878.5 38L900 39L900 0L878.5 0C857 0 814 0 771.2 0C728.3 0 685.7 0 642.8 0C600 0 557 0 514.2 0C471.3 0 428.7 0 385.8 0C343 0 300 0 257.2 0C214.3 0 171.7 0 128.8 0C86 0 43 0 21.5 0L0 0Z"
        fill="#2b80c2"></path>
    <path
        d="M0 34L21.5 32.7C43 31.3 86 28.7 128.8 26.3C171.7 24 214.3 22 257.2 24.8C300 27.7 343 35.3 385.8 39.8C428.7 44.3 471.3 45.7 514.2 44.2C557 42.7 600 38.3 642.8 35.5C685.7 32.7 728.3 31.3 771.2 32.2C814 33 857 36 878.5 37.5L900 39L900 0L878.5 0C857 0 814 0 771.2 0C728.3 0 685.7 0 642.8 0C600 0 557 0 514.2 0C471.3 0 428.7 0 385.8 0C343 0 300 0 257.2 0C214.3 0 171.7 0 128.8 0C86 0 43 0 21.5 0L0 0Z"
        fill="#1069b4"></path>
    <path
        d="M0 39L21.5 34.7C43 30.3 86 21.7 128.8 19.7C171.7 17.7 214.3 22.3 257.2 25.3C300 28.3 343 29.7 385.8 29C428.7 28.3 471.3 25.7 514.2 26.5C557 27.3 600 31.7 642.8 33.8C685.7 36 728.3 36 771.2 32C814 28 857 20 878.5 16L900 12L900 0L878.5 0C857 0 814 0 771.2 0C728.3 0 685.7 0 642.8 0C600 0 557 0 514.2 0C471.3 0 428.7 0 385.8 0C343 0 300 0 257.2 0C214.3 0 171.7 0 128.8 0C86 0 43 0 21.5 0L0 0Z"
        fill="#0051a3"></path>
    <path
        d="M0 24L21.5 20.2C43 16.3 86 8.7 128.8 6C171.7 3.3 214.3 5.7 257.2 7C300 8.3 343 8.7 385.8 11.2C428.7 13.7 471.3 18.3 514.2 18C557 17.7 600 12.3 642.8 10.7C685.7 9 728.3 11 771.2 10.2C814 9.3 857 5.7 878.5 3.8L900 2L900 0L878.5 0C857 0 814 0 771.2 0C728.3 0 685.7 0 642.8 0C600 0 557 0 514.2 0C471.3 0 428.7 0 385.8 0C343 0 300 0 257.2 0C214.3 0 171.7 0 128.8 0C86 0 43 0 21.5 0L0 0Z"
        fill="#013a91"></path>
</svg>