<svg id="visual" viewBox="0 0 900 150" width="900" height="150" xmlns="http://www.w3.org/2000/svg" xmlns:xlink="http://www.w3.org/1999/xlink" version="1.1"><rect x="0" y="0" width="900" height="150" fill="#001220"></rect><path d="M0 75L15 77C30 79 60 83 90 85C120 87 150 87 180 87C210 87 240 87 270 85.2C300 83.3 330 79.7 360 77.2C390 74.7 420 73.3 450 75.7C480 78 510 84 540 88.8C570 93.7 600 97.3 630 98.2C660 99 690 97 720 92.8C750 88.7 780 82.3 810 82.5C840 82.7 870 89.3 885 92.7L900 96L900 0L885 0C870 0 840 0 810 0C780 0 750 0 720 0C690 0 660 0 630 0C600 0 570 0 540 0C510 0 480 0 450 0C420 0 390 0 360 0C330 0 300 0 270 0C240 0 210 0 180 0C150 0 120 0 90 0C60 0 30 0 15 0L0 0Z" fill="#26a8f3"></path><path d="M0 51L15 55.3C30 59.7 60 68.3 90 71C120 73.7 150 70.3 180 68.7C210 67 240 67 270 70.3C300 73.7 330 80.3 360 83.2C390 86 420 85 450 84.5C480 84 510 84 540 82.7C570 81.3 600 78.7 630 77.2C660 75.7 690 75.3 720 77.3C750 79.3 780 83.7 810 83.3C840 83 870 78 885 75.5L900 73L900 0L885 0C870 0 840 0 810 0C780 0 750 0 720 0C690 0 660 0 630 0C600 0 570 0 540 0C510 0 480 0 450 0C420 0 390 0 360 0C330 0 300 0 270 0C240 0 210 0 180 0C150 0 120 0 90 0C60 0 30 0 15 0L0 0Z" fill="#2b80c2"></path><path d="M0 59L15 59C30 59 60 59 90 59.7C120 60.3 150 61.7 180 57.3C210 53 240 43 270 39.3C300 35.7 330 38.3 360 42.8C390 47.3 420 53.7 450 54.8C480 56 510 52 540 48C570 44 600 40 630 40.3C660 40.7 690 45.3 720 48.7C750 52 780 54 810 56.2C840 58.3 870 60.7 885 61.8L900 63L900 0L885 0C870 0 840 0 810 0C780 0 750 0 720 0C690 0 660 0 630 0C600 0 570 0 540 0C510 0 480 0 450 0C420 0 390 0 360 0C330 0 300 0 270 0C240 0 210 0 180 0C150 0 120 0 90 0C60 0 30 0 15 0L0 0Z" fill="#265b92"></path><path d="M0 38L15 37.5C30 37 60 36 90 33.3C120 30.7 150 26.3 180 26C210 25.7 240 29.3 270 32C300 34.7 330 36.3 360 33.7C390 31 420 24 450 22.2C480 20.3 510 23.7 540 27.2C570 30.7 600 34.3 630 33.8C660 33.3 690 28.7 720 28.2C750 27.7 780 31.3 810 29.5C840 27.7 870 20.3 885 16.7L900 13L900 0L885 0C870 0 840 0 810 0C780 0 750 0 720 0C690 0 660 0 630 0C600 0 570 0 540 0C510 0 480 0 450 0C420 0 390 0 360 0C330 0 300 0 270 0C240 0 210 0 180 0C150 0 120 0 90 0C60 0 30 0 15 0L0 0Z" fill="#1a3865"></path></svg>